HIERARCHY
ROOT Hips
{
  OFFSET 279.157 85.6768 304.565
  CHANNELS 6 Xposition Yposition Zposition Zrotation Xrotation Yrotation
  JOINT LeftUpLeg
  {
    OFFSET 8.64259 1.95398 -2.38835
    CHANNELS 3 Zrotation Xrotation Yrotation
    JOINT LeftLeg
    {
      OFFSET 43.7702 0 0
      CHANNELS 3 Zrotation Xrotation Yrotation
      JOINT LeftFoot
      {
        OFFSET 40.6238 0 0
        CHANNELS 3 Zrotation Xrotation Yrotation
        JOINT LeftToeBase
        {
          OFFSET 12.7242 0 0
          CHANNELS 3 Zrotation Xrotation Yrotation
          End Site
          {
            OFFSET 0 0 0
          }
        }
      }
    }
  }
  JOINT RightUpLeg
  {
    OFFSET -8.2249 1.95398 -2.59336
    CHANNELS 3 Zrotation Xrotation Yrotation
    JOINT RightLeg
    {
      OFFSET 43.5653 0 0
      CHANNELS 3 Zrotation Xrotation Yrotation
      JOINT RightFoot
      {
        OFFSET 40.6238 0 0
        CHANNELS 3 Zrotation Xrotation Yrotation
        JOINT RightToeBase
        {
          OFFSET 12.7242 0 0
          CHANNELS 3 Zrotation Xrotation Yrotation
          End Site
          {
            OFFSET 0 0 0
          }
        }
      }
    }
  }
  JOINT Spine
  {
    OFFSET 0.165834 0.87714 6.61349
    CHANNELS 3 Zrotation Xrotation Yrotation
    JOINT Spine1
    {
      OFFSET 7.38963 1.71661e-005 0
      CHANNELS 3 Zrotation Xrotation Yrotation
      JOINT Spine2
      {
        OFFSET 11.9445 1.14441e-005 0
        CHANNELS 3 Zrotation Xrotation Yrotation
        JOINT Spine3
        {
          OFFSET 14.7254 4.19617e-005 0
          CHANNELS 3 Zrotation Xrotation Yrotation
          JOINT Spine4
          {
            OFFSET 10.9679 0 0
            CHANNELS 3 Zrotation Xrotation Yrotation
            JOINT RightShoulder
            {
              OFFSET 2.46616 -1.6653 3.69651
              CHANNELS 3 Zrotation Xrotation Yrotation
              JOINT RightArm
              {
                OFFSET 13.0012 0 0
                CHANNELS 3 Zrotation Xrotation Yrotation
                JOINT RightForeArm
                {
                  OFFSET 28.7848 1.52588e-005 0
                  CHANNELS 3 Zrotation Xrotation Yrotation
                  JOINT RightHand
                  {
                    OFFSET 26.5688 1.52588e-005 0
                    CHANNELS 3 Zrotation Xrotation Yrotation
                    End Site
                    {
                      OFFSET 0 0 0
                    }
                  }
                }
              }
            }
            JOINT LeftShoulder
            {
              OFFSET 2.38034 -1.29275 -3.7523
              CHANNELS 3 Zrotation Xrotation Yrotation
              JOINT LeftArm
              {
                OFFSET 16.3182 6.10351e-005 0
                CHANNELS 3 Zrotation Xrotation Yrotation
                JOINT LeftForeArm
                {
                  OFFSET 27.0901 0 0
                  CHANNELS 3 Zrotation Xrotation Yrotation
                  JOINT LeftHand
                  {
                    OFFSET 24.5451 1.52588e-005 0
                    CHANNELS 3 Zrotation Xrotation Yrotation
                    End Site
                    {
                      OFFSET 0 0 0
                    }
                  }
                }
              }
            }
            JOINT Neck
            {
              OFFSET 5.0226 -0.0266342 0
              CHANNELS 3 Zrotation Xrotation Yrotation
              JOINT Head
              {
                OFFSET 6.69364 2.86102e-005 0
                CHANNELS 3 Zrotation Xrotation Yrotation
                End Site
                {
                  OFFSET 0 0 0
                }
              }
            }
          }
        }
      }
    }
  }
}
MOTION
Frames:	9
Frame Time:	0.0416667
31.5323 101.386 25.9001 -150.914 -79.9526 -151.775 -174.46 -2.09958 88.2412 -19.5943 7.40185 -0.153243 73.1473 7.15447 -2.81591 14.5564 -10.6827 7.01778 173.492 -6.14145 88.3172 -10.0212 -16.9942 -1.36029 67.9306 -5.92997 -1.63914 23.8013 1.14153 3.25641 0.310136 7.5872 -90.0275 11.6999 0.603991 -0.11813 0.0291232 0.598198 -0.144604 -22.5072 0.611565 0.0688692 -2.49451 0.611565 0.0688618 89.5906 -31.7788 -106.886 42.4987 -15.2906 -5.34713 1.59057 -24.7416 -15.2523 -25.0011 -1.30857 -4.52841 -88.9465 -54.4197 81.1397 -22.1937 14.6822 -13.8263 -1.7883 10.3419 -7.19935 3.32223 -0.216641 -6.90522 5.33553 -0.645397 -0.545246 -10.1367 -0.680419 2.03575 
31.456 101.183 25.7203 -148.197 -80.7116 -149.113 -175.049 -1.07714 87.852 -19.8182 8.22291 0.253355 73.279 7.66832 -1.37925 15.3792 -10.427 7.70176 174.022 -5.39028 88.6356 -10.1539 -20.6683 -1.85812 67.616 -6.36856 -4.61889 24.4685 1.26132 1.32422 0.355416 7.43179 -90 12.0107 0.706679 -0.076865 0.339973 0.702609 -0.107893 -22.1967 0.6971 0.139079 -2.18405 0.697108 0.139091 89.4222 -32.1735 -107.062 42.4812 -15.0342 -4.67512 3.46762 -23.6646 -14.6365 -26.6182 -0.449192 -8.71408 -89.2644 -54.4027 80.6828 -22.2599 13.6998 -13.2252 -0.999399 12.8116 -7.31415 -0.184305 -0.140919 -7.12067 3.97659 -0.813903 -1.10557 -9.25207 -0.798003 2.929 
31.4153 101.19 25.5916 -149.234 -80.4187 -150.085 -174.925 -1.28852 87.9704 -19.9332 8.18673 0.208921 73.4701 7.77279 -1.41028 15.4952 -10.4943 8.04915 174.033 -5.75291 88.7189 -9.95865 -20.6766 -1.83991 67.5554 -6.41649 -4.86549 24.2664 1.27613 1.62306 0.385325 7.48259 -89.9995 11.9092 0.766517 -0.0813651 0.238489 0.762192 -0.115023 -22.2984 0.75553 0.152785 -2.28579 0.755531 0.152779 89.4065 -32.2634 -107.058 42.3566 -15.0311 -4.71202 3.18926 -24.2302 -14.9384 -26.0356 -0.632295 -7.95688 -89.4024 -54.1032 80.4296 -22.5095 13.2331 -13.3473 -0.789548 13.6467 -7.08071 -0.939775 -0.139596 -8.51321 3.97481 -0.726895 -0.825257 -8.93736 -0.715393 2.32716 
31.3688 101.185 25.5086 -149.091 -80.3481 -150.002 -174.991 -1.35856 87.9128 -19.8017 8.1362 0.26461 73.3117 7.70375 -1.30724 15.5484 -10.2724 7.60108 174.048 -5.6728 88.7155 -10.1626 -20.9678 -1.88137 67.5439 -6.40135 -4.97012 24.1689 1.40955 1.04275 0.390049 7.48338 -90.0241 11.9078 0.764313 -0.13023 0.237067 0.757837 -0.163748 -22.2999 0.768112 0.105511 -2.28723 0.768113 0.105512 89.672 -31.9993 -106.647 42.3366 -14.7719 -4.71912 3.34018 -26.4302 -15.0351 -25.7213 -0.653142 -8.56319 -89.4506 -54.8822 80.5074 -21.8535 13.4608 -13.3035 -0.890349 12.992 -7.36218 -0.587175 -0.141999 -8.29679 4.10894 -0.752623 -0.460644 -9.43774 -0.820109 2.41682 
31.3683 101.197 25.4249 -149.18 -80.4242 -150.114 -175.097 -1.22789 87.8253 -19.8467 8.08244 0.346686 73.3718 7.68937 -1.45466 15.3104 -10.4845 7.73068 173.993 -5.40753 88.6406 -10.4007 -20.4687 -1.81172 67.6526 -6.32039 -4.36961 24.3979 1.28089 1.34293 0.364353 7.47444 -90.0257 11.9256 0.712386 -0.128134 0.254826 0.706055 -0.159377 -22.2819 0.717961 0.0919078 -2.26925 0.717957 0.0918957 89.8018 -31.8198 -106.463 42.5251 -14.4935 -4.86909 3.28179 -28.4949 -15.1815 -25.0918 -0.847328 -8.20179 -89.3553 -55.0932 80.682 -21.5336 13.6362 -13.4778 -1.07432 12.7632 -7.18341 -0.798934 -0.145982 -8.31282 4.58034 -0.7113 -0.305733 -9.81659 -0.81571 2.45629 
31.3351 101.194 25.4036 -149.381 -80.2058 -150.305 -174.998 -1.38743 87.8972 -19.9023 8.11521 0.275331 73.2621 7.66099 -1.24747 15.5597 -10.2631 7.59619 174.061 -5.68383 88.6967 -10.2789 -20.6525 -1.89924 67.632 -6.38167 -4.66789 24.1701 1.31664 1.57435 0.376401 7.4977 -90.0277 11.8791 0.735505 -0.133999 0.208359 0.728898 -0.166247 -22.3285 0.741766 0.0932574 -2.31582 0.741773 0.0932596 89.7038 -31.8092 -106.656 42.6077 -14.2798 -4.86684 3.16405 -28.0146 -14.9375 -24.416 -0.68695 -9.02439 -89.3775 -54.8597 80.6071 -21.8272 13.5793 -13.5044 -0.994732 12.9129 -7.1886 -0.798473 -0.146966 -8.38688 4.63329 -0.776775 -0.44799 -9.52422 -0.85773 2.60111 
31.3082 101.202 25.3725 -149.329 -80.1183 -150.296 -174.945 -1.43246 87.93 -19.932 7.91766 0.226378 73.3478 7.5806 -1.65344 15.414 -10.5098 7.95686 174.047 -5.78183 88.6758 -10.2221 -20.803 -1.92306 67.6911 -6.47113 -4.86985 23.9131 1.41414 1.50543 0.357009 7.49831 -90.0131 11.8778 0.703796 -0.101615 0.207035 0.698641 -0.132502 -22.3296 0.701795 0.114612 -2.31698 0.701794 0.114609 89.3838 -31.9231 -107.23 42.5125 -13.9051 -5.03492 3.46952 -27.8695 -14.2254 -25.0939 -0.6597 -9.0562 -89.1659 -54.7498 80.8874 -21.9254 13.5374 -13.4356 -0.941289 12.7158 -7.21596 -1.03679 -0.143344 -8.63835 4.69649 -0.728944 -0.498289 -9.59843 -0.808878 2.69131 
31.2784 101.199 25.3464 -150.077 -80.028 -150.921 -174.865 -1.55988 88.0846 -19.9508 8.2636 0.243322 73.3814 7.71436 -1.37677 15.4177 -10.4096 7.72203 174.109 -5.86646 88.793 -10.3131 -20.3949 -1.89232 67.7026 -6.39997 -4.53569 24.0148 1.39809 1.40497 0.341748 7.52147 -90.0225 11.8315 0.669081 -0.11611 0.160689 0.663331 -0.145442 -22.3758 0.673042 0.0903523 -2.3632 0.673046 0.0903595 89.4265 -31.9277 -107.146 42.3953 -14.4682 -4.96551 3.28966 -28.0371 -14.938 -25.4765 -0.915849 -7.6455 -88.9991 -54.8068 81.135 -21.742 13.671 -13.6733 -1.02005 12.4294 -7.17056 -0.988783 -0.139383 -8.43675 4.91272 -0.61745 -0.34176 -9.47257 -0.696578 2.28199 
31.281 101.182 25.3074 -149.333 -79.9488 -150.262 -174.996 -1.51327 87.9169 -19.9875 7.81906 0.317632 73.2936 7.6018 -1.53327 15.5486 -10.2487 7.54355 174.017 -5.68088 88.68 -10.573 -21.1228 -1.87645 67.4739 -6.27477 -4.80081 24.5775 1.28834 0.94766 0.382494 7.48551 -90.0259 11.9034 0.748376 -0.132153 0.232712 0.741841 -0.164968 -22.3042 0.753488 0.0988849 -2.29151 0.753496 0.0988911 89.5847 -31.5903 -106.968 42.7847 -14.3045 -4.74434 3.38313 -27.9608 -14.9998 -24.7513 -0.741045 -8.65495 -89.3458 -54.9413 80.6674 -21.8329 13.4431 -13.4228 -0.919701 12.6801 -7.21283 -1.06787 -0.138656 -8.59516 4.30761 -0.7404 0.0396592 -9.24573 -0.876913 2.18565 
